<mxfile host="app.diagrams.net" modified="2024-03-13T08:04:33.542Z" agent="Mozilla/5.0 (X11; Linux x86_64) AppleWebKit/537.36 (KHTML, like Gecko) Chrome/120.0.0.0 Safari/537.36" version="23.1.4" etag="vayiUopBaPq44o8A09pw" type="github">
  <diagram name="Page-1" id="VOycTrp6NL82KfrBGyco">
    <mxGraphModel>
      <root>
        <mxCell id="0" />
        <mxCell id="1" parent="0" />
      </root>
    </mxGraphModel>
  </diagram>
</mxfile>
